<svg height="496pt" viewBox="0 0 496 496" width="496pt" xmlns="http://www.w3.org/2000/svg"><path d="m472 98v246h-320v-246zm0 0" fill="#e6e9ed"/><path d="m264 291.671875v-75.671875h96v128h-96zm0 0" fill="#dfb28b"/><path d="m280 280h-128v64h160v-32c0-17.648438-14.351562-32-32-32zm0 0" fill="#fcd770"/><path d="m280 280h-16v64h48v-32c0-17.648438-14.351562-32-32-32zm0 0" fill="#cf9e76"/><path d="m264 280h-112v64h112zm0 0" fill="#ccd1d9"/><path d="m280 488h-256c-8.839844 0-16-7.167969-16-16v-160c0-8.832031 7.160156-16 16-16h256c8.832031 0 16 7.167969 16 16v160c0 8.832031-7.167969 16-16 16zm0 0" fill="#ccd1d9"/><path d="m112 432c0 13.253906-10.746094 24-24 24s-24-10.746094-24-24 10.746094-24 24-24 24 10.746094 24 24zm0 0" fill="#a0d468"/><path d="m80 432c0 13.253906-10.746094 24-24 24s-24-10.746094-24-24 10.746094-24 24-24 24 10.746094 24 24zm0 0" fill="#fcd770"/><path d="m184 192h48v48h-48zm0 0" fill="#69d6f4"/><path d="m392 184h48v48h-48zm0 0" fill="#69d6f4"/><path d="m8 328h288v48h-288zm0 0" fill="#a0d468"/><path d="m184 8h256c8.832031 0 16 7.160156 16 16v16h-288v-16c0-8.839844 7.167969-16 16-16zm0 0" fill="#ff826e"/><path d="m485.152344 105.601562-29.152344-65.601562h-288l-29.152344 65.601562c-1.878906 4.214844-2.847656 8.78125-2.847656 13.398438 0 18.222656 14.777344 33 33 33h5.230469c15.144531 0 28.34375-10.304688 32.015625-24.992188l1.753906-7.007812c0 17.671875 14.328125 32 32 32h7.015625c14.679687 0 27.480469-9.992188 31.046875-24.238281l1.9375-7.761719c0 17.671875 14.328125 32 32 32s32-14.328125 32-32l1.9375 7.761719c3.558594 14.246093 16.359375 24.238281 31.046875 24.238281h7.015625c17.671875 0 32-14.328125 32-32l1.753906 7.007812c3.671875 14.6875 16.871094 24.992188 32.015625 24.992188h5.230469c18.222656 0 33-14.777344 33-33 0-4.617188-.96875-9.183594-2.847656-13.398438zm0 0" fill="#ff826e"/><path d="m496 119c0-5.777344-1.183594-11.375-3.535156-16.648438l-28.464844-64.046874v-14.304688c0-13.230469-10.769531-24-24-24h-256c-13.230469 0-24 10.769531-24 24v14.304688l-28.464844 64.046874c-2.351562 5.273438-3.535156 10.871094-3.535156 16.648438 0 13.160156 6.335938 24.753906 16 32.265625v136.734375h-120c-13.230469 0-24 10.769531-24 24v160c0 13.230469 10.769531 24 24 24h256c13.230469 0 24-10.769531 24-24v-120h176v-200.734375c9.664062-7.511719 16-19.105469 16-32.265625zm-320-95c0-4.414062 3.59375-8 8-8h256c4.40625 0 8 3.585938 8 8v8h-272zm231.953125 96.496094c-.273437 13-10.890625 23.503906-23.953125 23.503906h-7.015625c-11.03125 0-20.609375-7.480469-23.289063-18.175781l-1.695312-6.808594v-71.015625h41.441406zm-135.953125-1.480469-1.695312 6.800781c-2.679688 10.703125-12.257813 18.183594-23.289063 18.183594h-7.015625c-13.230469 0-24-10.769531-24-24h-.160156l14.695312-72h41.464844zm16-71.015625h48v72c0 13.230469-10.769531 24-24 24s-24-10.769531-24-24zm-141.847656 60.847656 27.046875-60.847656h41.046875l-14.007813 70.0625-1.75 7.007812c-2.785156 11.136719-12.761719 18.929688-24.257812 18.929688h-5.230469c-13.785156 0-25-11.214844-25-25 0-3.511719.726562-6.929688 2.152344-10.152344zm-122.152344 195.152344h256c4.40625 0 8 3.585938 8 8v8h-272v-8c0-4.414062 3.59375-8 8-8zm264 32v32h-272v-32zm-8 144h-256c-4.40625 0-8-3.585938-8-8v-88h272v88c0 4.414062-3.59375 8-8 8zm0-192h-8v-64h80v112h-48v-24c0-13.230469-10.769531-24-24-24zm184 48h-96v-128h-112v80h-96v-129.0625c2.902344.65625 5.894531 1.0625 9 1.0625h5.230469c13.480469 0 25.601562-6.601562 33.136719-17.015625 7.25 10.261719 19.144531 17.015625 32.632812 17.015625h7.015625c13.257813 0 25.167969-6.535156 32.503906-16.832031 7.265625 10.152343 19.082031 16.832031 32.480469 16.832031s25.214844-6.679688 32.480469-16.832031c7.335937 10.296875 19.246093 16.832031 32.503906 16.832031h7.015625c13.488281 0 25.382812-6.753906 32.632812-17.015625 7.527344 10.414063 19.65625 17.015625 33.136719 17.015625h5.230469c3.105469 0 6.097656-.40625 9-1.0625zm-9-192h-5.230469c-11.496093 0-21.472656-7.792969-24.257812-18.929688l-15.71875-77.070312h41.007812l27.046875 60.847656c1.425782 3.222656 2.152344 6.640625 2.152344 10.152344 0 13.785156-11.214844 25-25 25zm0 0"/><path d="m232 416h32v16h-32zm0 0"/><path d="m184 416h32v16h-32zm0 0"/><path d="m136 416h32v16h-32zm0 0"/><path d="m136 448h128v16h-128zm0 0"/><path d="m88 400c-5.640625 0-11.144531 1.519531-16 4.367188-.640625-.375-1.320312-.664063-1.976562-.992188-.855469-.421875-1.695313-.832031-2.589844-1.175781-1.363282-.527344-2.753906-.960938-4.167969-1.296875-.5625-.125-1.113281-.238282-1.679687-.34375-1.84375-.328125-3.699219-.558594-5.585938-.558594-17.648438 0-32 14.351562-32 32s14.351562 32 32 32c1.886719 0 3.742188-.230469 5.574219-.558594.570312-.105468 1.128906-.21875 1.691406-.34375 1.414063-.335937 2.796875-.769531 4.148437-1.289062.898438-.34375 1.753907-.761719 2.609376-1.183594.664062-.328125 1.335937-.617188 1.976562-.992188 4.855469 2.847657 10.359375 4.367188 16 4.367188 17.648438 0 32-14.351562 32-32s-14.351562-32-32-32zm-48 32c0-8.824219 7.175781-16 16-16 1.015625 0 2.007812.121094 2.96875.304688.824219.160156 1.625.40625 2.414062.703124.097657.03125.203126.054688.296876.097657 1.792968.703125 3.472656 1.742187 4.960937 3.078125l.910156.824218c2.746094 2.855469 4.449219 6.71875 4.449219 10.992188s-1.703125 8.136719-4.441406 11.007812l-.910156.824219c-1.480469 1.335938-3.167969 2.375-4.960938 3.078125-.09375.042969-.199219.058594-.296875.097656-.789063.296876-1.589844.535157-2.414063.703126-.96875.167968-1.960937.289062-2.976562.289062-8.824219 0-16-7.175781-16-16zm48 16c-1.398438 0-2.769531-.257812-4.113281-.632812 2.546875-4.574219 4.113281-9.765626 4.113281-15.367188s-1.566406-10.792969-4.113281-15.367188c1.34375-.375 2.714843-.632812 4.113281-.632812 8.824219 0 16 7.175781 16 16s-7.175781 16-16 16zm0 0"/><path d="m176 248h64v-64h-64zm16-48h32v32h-32zm0 0"/><path d="m384 240h64v-64h-64zm16-48h32v32h-32zm0 0"/></svg>