<svg height="496pt" viewBox="-40 0 496 496" width="496pt" xmlns="http://www.w3.org/2000/svg"><path d="m288 96h120v216h-400v-216zm0 0" fill="#b4dd7f"/><path d="m288 96h-175.59375c4.089844 49.199219 45.355469 88 95.59375 88s91.503906-38.800781 95.59375-88zm0 0" fill="#a0d468"/><path d="m288 88c0 44.183594-35.816406 80-80 80s-80-35.816406-80-80 35.816406-80 80-80 80 35.816406 80 80zm0 0" fill="#ffc729"/><path d="m152 440h128v48h-128zm0 0" fill="#cf9e76"/><path d="m144 312h160v-72c0-17.648438-14.351562-32-32-32-1.40625 0-2.792969.097656-4.144531.265625-5.496094-9.707031-15.925781-16.265625-27.855469-16.265625-1.40625 0-2.792969.097656-4.144531.265625-5.496094-9.707031-15.925781-16.265625-27.855469-16.265625s-22.359375 6.558594-27.855469 16.265625c-1.351562-.167969-2.738281-.265625-4.144531-.265625-17.648438 0-32 14.351562-32 32zm0 0" fill="#a0d468"/><path d="m272 224c-8.839844 0-16 7.160156-16 16v-16c0-8.839844-7.160156-16-16-16s-16 7.160156-16 16v-16c0-8.839844-7.160156-16-16-16s-16 7.160156-16 16v16c0-8.839844-7.160156-16-16-16s-16 7.160156-16 16v88h-24v35.152344c0 3.160156.9375 6.246094 2.6875 8.871094l26.625 39.9375c1.75 2.640624 2.6875 5.726562 2.6875 8.886718v35.152344h96v-36.222656c0-2.480469.574219-4.9375 1.6875-7.152344l20.625-41.242188c1.113281-2.222656 1.6875-4.679687 1.6875-7.160156v-108.222656c0-8.839844-7.160156-16-16-16zm0 0" fill="#f0d0b4"/><path d="m168 424h96v16h-96zm0 0" fill="#ecc19c"/><path d="m416 88h-120c0-48.519531-39.480469-88-88-88s-88 39.480469-88 88h-120v232h128v27.160156c0 4.761719 1.390625 9.359375 4.03125 13.3125l26.625 39.941406c.878906 1.3125 1.34375 2.84375 1.34375 4.425782v27.160156h-16v64h144v-64h-16v-28.222656c0-1.234375.296875-2.480469.839844-3.578125l20.625-41.246094c1.664062-3.3125 2.535156-7.023437 2.535156-10.730469v-28.222656h120zm-208-72c39.695312 0 72 32.304688 72 72s-32.304688 72-72 72-72-32.304688-72-72 32.304688-72 72-72zm64 464h-112v-32h112zm8-131.777344c0 1.234375-.296875 2.480469-.839844 3.578125l-20.625 41.246094c-1.664062 3.3125-2.535156 7.023437-2.535156 10.730469v28.222656h-80v-27.160156c0-4.761719-1.390625-9.359375-4.03125-13.3125l-26.625-39.941406c-.878906-1.3125-1.34375-2.84375-1.34375-4.425782v-27.160156h24v-96c0-4.40625 3.59375-8 8-8s8 3.59375 8 8v96h16v-112c0-4.40625 3.59375-8 8-8s8 3.59375 8 8v112h16v-96c0-4.40625 3.59375-8 8-8s8 3.59375 8 8v96h16v-80c0-4.40625 3.59375-8 8-8s8 3.59375 8 8zm120-44.222656h-104v-64c0-13.230469-10.769531-24-24-24-3.160156 0-6.160156.648438-8.929688 1.761719-2.757812-10.203125-12.007812-17.761719-23.070312-17.761719-3.160156 0-6.160156.648438-8.929688 1.761719-2.757812-10.203125-12.007812-17.761719-23.070312-17.761719s-20.304688 7.558594-23.070312 17.761719c-2.769532-1.113281-5.769532-1.761719-8.929688-1.761719-13.230469 0-24 10.769531-24 24v80h-136v-200h105.527344c7.550781 40.894531 43.417968 72 86.472656 72s78.921875-31.105469 86.472656-72h105.527344zm0 0"/><path d="m224 120h-32c-4.40625 0-8-3.59375-8-8h-16c0 13.230469 10.769531 24 24 24h8v8h16v-8h8c13.230469 0 24-10.769531 24-24v-8c0-13.230469-10.769531-24-24-24h-32c-4.40625 0-8-3.59375-8-8v-8c0-4.40625 3.59375-8 8-8h32c4.40625 0 8 3.59375 8 8h16c0-13.230469-10.769531-24-24-24h-8v-8h-16v8h-8c-13.230469 0-24 10.769531-24 24v8c0 13.230469 10.769531 24 24 24h32c4.40625 0 8 3.59375 8 8v8c0 4.40625-3.59375 8-8 8zm0 0"/><path d="m48 136h24v-16h-40v40h16zm0 0"/><path d="m48 248h-16v40h40v-16h-24zm0 0"/><path d="m368 160h16v-40h-40v16h24zm0 0"/><path d="m368 272h-24v16h40v-40h-16zm0 0"/><path d="m272 184h16v16h-16zm0 0"/><path d="m304 184h16v16h-16zm0 0"/><path d="m336 184h16v16h-16zm0 0"/><path d="m64 184h16v16h-16zm0 0"/><path d="m96 184h16v16h-16zm0 0"/><path d="m128 184h16v16h-16zm0 0"/></svg>